<?xml version="1.0"?>
<svg xmlns="http://www.w3.org/2000/svg" height="512px" viewBox="-80 -21 682 682.66669" width="512px"><path d="m123.410156 66.207031c4.925782-.019531 9.777344-1.152343 14.203125-3.3125l.0625.105469 31.527344 31.496094c-13.660156 17.855468-15.910156 36.503906-8.417969 44 8.664063 8.683594 32.285156 4.355468 52.335938-15.683594 20.046875-20.039062 24.355468-43.671875 15.679687-52.335938-3.425781-3.015624-7.902343-4.546874-12.457031-4.269531-11.582031.804688-22.613281 5.242188-31.523438 12.679688l-31.539062-31.511719-.078125-.070312c2.164063-4.421876 3.292969-9.277344 3.3125-14.199219 0-18.285157-14.820313-33.105469-33.105469-33.105469-18.28125 0-33.101562 14.820312-33.101562 33.105469 0 18.28125 14.820312 33.101562 33.101562 33.101562zm0 0" fill="#FFFFFF"/><path d="m211.789062 463.445312h29.105469l-5.703125-28.53125c-11.601562 5.628907-20.152344 16.058594-23.402344 28.53125zm0 0" fill="#FFFFFF"/><path d="m175.824219 386.207031-19.308594 165.429688 195.707031.085937-19.320312-165.515625zm34.394531 143.445313c-6.09375 0-11.035156-4.933594-11.035156-11.027344 0-6.101562 4.941406-11.039062 11.035156-11.039062s11.035156 4.9375 11.035156 11.039062c0 6.09375-4.941406 11.027344-11.035156 11.027344zm44.136719 0c-6.09375 0-11.035157-4.933594-11.035157-11.027344 0-6.101562 4.941407-11.039062 11.035157-11.039062s11.035156 4.9375 11.035156 11.039062c0 6.09375-4.941406 11.027344-11.035156 11.027344zm44.140625 0c-6.09375 0-11.035156-4.933594-11.035156-11.027344 0-6.101562 4.941406-11.039062 11.035156-11.039062s11.03125 4.9375 11.03125 11.039062c0 2.921875-1.164063 5.730469-3.226563 7.796875-2.070312 2.070313-4.878906 3.230469-7.804687 3.230469zm11.03125-44.136719h-110.34375c-6.09375 0-11.035156-4.9375-11.035156-11.03125 0-36.5625 29.644531-66.207031 66.207031-66.207031 36.566406 0 66.207031 29.644531 66.207031 66.207031 0 2.921875-1.164062 5.730469-3.234375 7.800781-2.0625 2.070313-4.871094 3.230469-7.800781 3.230469zm0 0" fill="#FFFFFF"/><path d="m256.828125 430.601562 6.621094 32.84375h33.523437c-4.820312-18.507812-21.042968-31.789062-40.144531-32.84375zm0 0" fill="#FFFFFF"/><path d="m189.621094 162.328125v14.226563h22.0625v-24.421876c-6.808594 4.464844-14.246094 7.902344-22.0625 10.195313zm0 0" fill="#FFFFFF"/><path d="m178.585938 198.625h-43.90625l30.890624 164.574219c.097657.492187.164063.988281.175782 1.488281h5.519531c1.5-.34375 3.027344-.527344 4.558594-.550781h171.132812l30.027344-165.511719zm110.863281 55.167969c0-6.09375 4.9375-11.035157 11.03125-11.035157s11.035156 4.941407 11.035156 11.035157v33.101562c0 6.097657-4.941406 11.035157-11.035156 11.035157s-11.03125-4.9375-11.03125-11.035157zm-66.210938 33.101562c0 6.097657-4.9375 11.035157-11.035156 11.035157-6.09375 0-11.03125-4.9375-11.03125-11.035157v-33.101562c0-6.09375 4.9375-11.035157 11.03125-11.035157 6.097656 0 11.035156 4.941407 11.035156 11.035157zm0 0" fill="#FFFFFF"/><path d="m288.925781 573.792969v55.171875c0 6.09375 4.941407 11.035156 11.035157 11.035156h55.171874c5.523438 0 10.191407-4.078125 10.9375-9.546875l-18.890624-56.660156zm0 0" fill="#FFFFFF"/><path d="m145.578125 630.453125c.746094 5.46875 5.417969 9.546875 10.9375 9.546875h55.167969c6.09375 0 11.035156-4.941406 11.035156-11.035156v-55.171875h-58.25zm0 0" fill="#FFFFFF"/><path d="m451.90625 395.671875v1.570313c0 12.1875-9.878906 22.070312-22.066406 22.070312h-70.863282l2.582032 22.0625h90.347656c12.191406 0 22.070312-9.875 22.070312-22.0625v-23.640625c-7.207031 2.09375-14.859374 2.09375-22.070312 0zm0 0" fill="#FFFFFF"/><path d="m62.613281 465.015625v-1.570313c0-12.1875 9.878907-22.070312 22.066407-22.070312h62.488281l2.582031-22.0625h-87.171875c-12.1875 0-22.070313 9.875-22.070313 22.0625v23.640625c7.207032-2.089844 14.863282-2.089844 22.070313 0zm0 0" fill="#FFFFFF"/><path d="m514.882812 279.097656-22.070312-22.070312c-2.773438-2.867188-6.875-4.019532-10.730469-3.007813-3.859375 1.011719-6.871093 4.023438-7.882812 7.878907-1.011719 3.859374.140625 7.960937 3.007812 10.726562l16.191407 16.195312-23.980469 43.320313c-2.089844-.695313-4.277344-1.070313-6.476563-1.105469-.78125.039063-1.5625.113282-2.339844.230469l-27.695312-42.867187 15.765625-15.773438c4.183594-4.324219 4.125-11.210938-.132813-15.46875-4.257812-4.25-11.136718-4.308594-15.46875-.128906l-22.070312 22.070312c-3.671875 3.671875-4.28125 9.414063-1.464844 13.777344l33.203125 51.402344c-3.9375 8.675781-1.882812 18.902344 5.109375 25.378906 6.988282 6.480469 17.339844 7.761719 25.691406 3.175781 8.359376-4.585937 12.839844-14.003906 11.128907-23.378906.585937-.621094 1.097656-1.304687 1.523437-2.046875l30.566406-55.171875c2.375-4.304687 1.605469-9.664063-1.875-13.136719zm0 0" fill="#FFFFFF"/><path d="m70.609375 518.554688c1.964844-3.324219 3.015625-7.109376 3.035156-10.96875 0-12.191407-9.878906-22.070313-22.066406-22.070313s-22.070313 9.878906-22.070313 22.070313c.023438 3.921874 1.101563 7.761718 3.121094 11.125l-34.207031 48.734374c-3.078125 4.390626-2.566406 10.359376 1.226563 14.152344l22.066406 22.066406c4.3125 4.3125 11.304687 4.320313 15.613281.011719 4.316406-4.308593 4.324219-11.300781.011719-15.613281l-15.445313-15.519531 29.789063-42.566407 29.699218 42.546876-15.527343 15.539062c-2.789063 2.789062-3.871094 6.855469-2.851563 10.664062 1.023438 3.808594 4.003906 6.785157 7.8125 7.800782 3.8125 1.019531 7.875-.074219 10.664063-2.863282l22.070312-22.066406c3.777344-3.785156 4.300781-9.730468 1.246094-14.117187zm0 0" fill="#FFFFFF"/><path d="m333.066406 176.554688h22.066406v-11.039063c-.039062-4.195313-2.460937-8.007813-6.246093-9.832031l14.347656-35.824219 93.625-20.8125c4.5625-1.015625 7.996094-4.789063 8.566406-9.429687.566407-4.636719-1.847656-9.128907-6.027343-11.21875l-110.34375-55.171876c-3.671876-1.851562-8.074219-1.5-11.40625.90625-3.339844 2.40625-5.066407 6.46875-4.472657 10.535157l10.613281 74.320312-18.191406 45.496094h-14.601562c-6.09375 0-11.035156 4.9375-11.035156 11.03125v11.039063zm0 0" fill="#FFFFFF"/></svg>
